<?xml version="1.0" encoding="UTF-8"?>
<svg width="14px" height="16px" viewBox="0 0 14 16" version="1.1" xmlns="http://www.w3.org/2000/svg" xmlns:xlink="http://www.w3.org/1999/xlink">
    <!-- Generator: Sketch 63 (92445) - https://sketch.com -->
    <title>分支明细</title>
    <desc>Created with Sketch.</desc>
    <g id="页面-1" stroke="none" stroke-width="1" fill="none" fill-rule="evenodd">
        <!-- #BFCBD1 -->
        <g id="1920" transform="translate(-31.000000, -264.000000)" fill="#ffffff" fill-rule="nonzero">
            <g id="分支明细" transform="translate(31.003571, 264.000000)">
                <path d="M11.9982143,-1.77635684e-15 L3.81785714,-1.77635684e-15 C3.00535714,-1.77635684e-15 2.32857143,0.548214286 2.11785714,1.28928571 L11.1660714,1.28928571 C11.9017857,1.28928571 12.5,1.88571429 12.5,2.62321429 L12.5,14.3607143 C13.2357143,14.1428571 13.7785714,13.4696429 13.7785714,12.6625 L13.7785714,1.77857143 C13.7767857,0.796428571 12.9803571,-1.77635684e-15 11.9982143,-1.77635684e-15 Z M9.95535714,2.05535714 L1.77857143,2.05535714 C0.796428571,2.05535714 1.95399252e-14,2.85178571 1.95399252e-14,3.83392857 L1.95399252e-14,14.2214286 C1.95399252e-14,15.2035714 0.796428571,16 1.77857143,16 L9.95535714,16 C10.9375,16 11.7339286,15.2035714 11.7339286,14.2214286 L11.7339286,3.83392857 C11.7321429,2.85178571 10.9375,2.05535714 9.95535714,2.05535714 Z M8.66607143,10.3267857 C8.66607143,10.6125 8.43392857,10.8446429 8.14821429,10.8446429 L6.37321429,10.8446429 L6.37321429,12.1428571 C6.37321429,12.4232143 6.14642857,12.65 5.86607143,12.65 C5.58571429,12.65 5.35892857,12.4232143 5.35892857,12.1428571 L5.35892857,10.8446429 L3.57321429,10.8446429 C3.2875,10.8446429 3.05534691,10.6125 3.05534691,10.3267857 L3.05534691,10.3214286 C3.05357143,10.0357143 3.28571429,9.80357143 3.57321429,9.80357143 L5.35892857,9.80357143 L5.35892857,8.76428571 L3.5625,8.76428571 C3.28214286,8.76428571 3.05534691,8.5375 3.05534691,8.25714286 C3.05534691,7.97678571 3.28214286,7.75 3.5625,7.75 L4.65357143,7.75 L3.72142857,6.80535714 C3.52142857,6.60535714 3.52142857,6.27678571 3.72142857,6.07857143 C3.91964286,5.87857143 4.24285714,5.87857143 4.43928571,6.07857143 L5.86964286,7.525 L7.42678571,5.95 C7.62678571,5.75 7.94821429,5.75 8.14821429,5.95 C8.34821429,6.15 8.34821429,6.47857143 8.14821429,6.68035714 L7.09107143,7.75178571 L8.15714286,7.75178571 C8.4375,7.75178571 8.66428571,7.97857143 8.66428571,8.25892857 C8.66428571,8.53928571 8.4375,8.76607143 8.15714286,8.76607143 L6.37321429,8.76607143 L6.37321429,9.80357143 L8.14821429,9.80357143 C8.43392857,9.80357143 8.66607143,10.0357143 8.66607143,10.3214286 L8.66607143,10.3267857 Z" id="形状"></path>
            </g>
        </g>
    </g>
</svg>