<?xml version="1.0" encoding="UTF-8"?>
<svg width="17px" height="16px" viewBox="0 0 17 16" version="1.1" xmlns="http://www.w3.org/2000/svg" xmlns:xlink="http://www.w3.org/1999/xlink">
    <!-- Generator: Sketch 63 (92445) - https://sketch.com -->
    <title>分销奖金总览</title>
    <desc>Created with Sketch.</desc>
    <g id="页面-1" stroke="none" stroke-width="1" fill="none" fill-rule="evenodd">
        <g id="1920" transform="translate(-30.000000, -141.000000)" fill="#ffffff" fill-rule="nonzero">
            <g id="分销奖金总览" transform="translate(30.013138, 141.004974)">
                <path d="M11.0693878,4.57959184 C11.3061224,4.70204082 11.5510204,4.80816327 11.7795918,4.93877551 C13.7959184,6.07346939 15.077551,7.73877551 15.6734694,9.89387755 C15.844898,10.522449 15.9346939,11.1510204 15.9510204,11.7877551 L15.9510204,11.7877551 L15.9510204,12.1469388 C15.9428571,12.5387755 15.9102041,12.9306122 15.844898,13.322449 C15.7632653,13.8204082 15.6244898,14.2938776 15.3306122,14.7102041 C14.7428571,15.5346939 13.9346939,15.9836735 12.8897959,15.9836735 C9.6244898,15.9918367 6.36734694,15.9836735 3.10204082,15.9918367 C1.72244898,15.9918367 0.563265306,15.0530612 0.228571429,13.7959184 C0.0816326531,13.2571429 0.0163265306,12.7183673 -3.10862447e-14,12.1795918 L-3.10862447e-14,12.1795918 L-3.10862447e-14,11.8040816 C0.00816326531,11.6571429 0.0163265306,11.5183673 0.0244897959,11.3714286 C0.243062804,8.41663286 2.07766222,5.82494704 4.79183673,4.63673469 C4.8,4.63673469 4.80816327,4.62857143 4.81632653,4.62857143 C5.93469388,5.12653061 8.0244898,5.61632653 11.0693878,4.57959184 L11.0693878,4.57959184 Z M8.71836735,6.97959184 C8.47346939,7.8122449 8.04897959,8.48979592 7.44489796,9.02040816 L7.44489796,9.02040816 L7.44489796,8.2122449 C7.44489796,7.82040816 7.47755102,7.55918367 7.53469388,7.42040816 C7.55918367,7.37142857 7.5755102,7.32244898 7.5755102,7.28979592 C7.5755102,7.21632653 7.50204082,7.18367347 7.35510204,7.18367347 L7.35510204,7.18367347 L6.54693878,7.18367347 L6.54693878,8.9877551 L4.81632653,9.86938776 L5.29795918,10.6367347 C5.34693878,10.7102041 5.39591837,10.7510204 5.43673469,10.7510204 C5.47755102,10.7510204 5.52653061,10.7183673 5.58367347,10.644898 C5.77142857,10.4326531 6.09795918,10.1795918 6.55510204,9.90204082 L6.55510204,9.90204082 L6.55510204,11.1673469 L7.45306122,11.1673469 L7.45306122,9.29795918 C7.61632653,9.40408163 7.7877551,9.53469388 7.95918367,9.68979592 C8.3755102,9.34693878 8.71020408,8.99591837 8.97142857,8.63673469 L8.97142857,8.63673469 L10.2285714,8.63673469 C10.0816327,8.9877551 9.91020408,9.27346939 9.72244898,9.49387755 C9.55918367,9.24897959 9.37959184,9.02040816 9.19183673,8.8244898 L9.19183673,8.8244898 L8.44897959,9.35510204 C8.70204082,9.60816327 8.90612245,9.83673469 9.04489796,10.0489796 C8.73469388,10.2285714 8.31020408,10.3918367 7.77142857,10.5469388 C7.93469388,10.6857143 8.05714286,10.8081633 8.14693878,10.9142857 C7.93469388,10.8897959 7.77142857,10.8816327 7.64081633,10.8734694 C7.6244898,11.044898 7.59183673,11.2244898 7.54285714,11.4204082 L7.54285714,11.4204082 L4.71836735,11.4204082 L4.71836735,12.1795918 L7.19183673,12.1877551 C6.7755102,12.8489796 5.90204082,13.2571429 4.56326531,13.3959184 C4.8244898,13.6489796 5.05306122,13.9265306 5.23265306,14.2204082 C6.07346939,14.0244898 6.72653061,13.7714286 7.1755102,13.444898 C7.6244898,13.1183673 7.95102041,12.7755102 8.15510204,12.4163265 C8.89795918,13.3632653 9.85306122,13.9591837 11.0285714,14.1959184 C11.1755102,13.8693878 11.3795918,13.5591837 11.6326531,13.2734694 C10.5306122,13.1673469 9.64897959,12.8 9.00408163,12.1795918 L9.00408163,12.1795918 L11.5183673,12.1795918 L11.5183673,11.4204082 L8.57142857,11.4204082 C8.59591837,11.3387755 8.63673469,11.2816327 8.67755102,11.2244898 C8.72653061,11.1755102 8.75918367,11.1265306 8.7755102,11.0938776 C9.51020408,10.8081633 10.0979592,10.4 10.5387755,9.87755102 C10.9795918,9.35510204 11.2897959,8.68571429 11.477551,7.86122449 L11.477551,7.86122449 L9.50204082,7.86122449 C9.60816327,7.72244898 9.70612245,7.6244898 9.77959184,7.56734694 C9.85306122,7.51020408 9.89387755,7.46122449 9.89387755,7.42040816 C9.89387755,7.37959184 9.86938776,7.33877551 9.83673469,7.31428571 C9.79591837,7.28163265 9.66530612,7.23265306 9.42857143,7.16734694 C9.19183673,7.09387755 8.95510204,7.03673469 8.71836735,6.97959184 Z M6.04897959,7.61632653 L5.10204082,7.93469388 C5.29795918,8.31836735 5.43673469,8.69387755 5.53469388,9.07755102 L5.53469388,9.07755102 L6.43265306,8.81632653 C6.33469388,8.48163265 6.2122449,8.08163265 6.04897959,7.61632653 L6.04897959,7.61632653 Z M9.14285714,-8.8817842e-16 C9.34693878,0.0979591837 9.53469388,0.228571429 9.70612245,0.383673469 C9.75510204,0.432653061 9.77959184,0.416326531 9.83673469,0.4 C10.5714286,0.106122449 11.2734694,0.171428571 11.8857143,0.669387755 C12.3428571,1.04489796 12.4816327,1.49387755 12.3591837,2.22857143 C12.2938776,2.46530612 12.2693878,2.57142857 12.1795918,2.8244898 C11.9836735,3.34693878 11.6081633,3.7877551 11.2,4.16326531 L11.2,4.16326531 L11.077551,4.26938776 C11.0693878,4.26938776 11.0693878,4.27755102 11.0693878,4.27755102 C8.01632653,5.32244898 5.95102041,4.8244898 4.83265306,4.32653061 C4.85714286,4.31836735 4.85714286,4.30204082 4.88163265,4.29387755 C4.75918367,4.17959184 4.64489796,4.06530612 4.53877551,3.95102041 C4.00816327,3.3877551 3.69795918,2.71836735 3.6,1.95918367 C3.48571429,1.07755102 4.13877551,0.432653061 4.92244898,0.27755102 C5.33877551,0.195918367 5.74693878,0.228571429 6.13877551,0.4 C6.19591837,0.424489796 6.22857143,0.416326531 6.26938776,0.367346939 C6.43265306,0.220408163 6.6122449,0.0979591837 6.80816327,-8.8817842e-16 L6.80816327,-8.8817842e-16 Z" id="形状结合"></path>
            </g>
        </g>
    </g>
</svg>