<?xml version="1.0" encoding="UTF-8"?>
<svg width="16px" height="17px" viewBox="0 0 16 17" version="1.1" xmlns="http://www.w3.org/2000/svg" xmlns:xlink="http://www.w3.org/1999/xlink">
    <!-- Generator: Sketch 63 (92445) - https://sketch.com -->
    <title>分销奖金管理</title>
    <desc>Created with Sketch.</desc>
    <g id="页面-1" stroke="none" stroke-width="1" fill="none" fill-rule="evenodd">
        <g id="1920" transform="translate(-30.000000, -223.000000)" fill="#ffffff" fill-rule="nonzero">
            <g id="分销奖金管理" transform="translate(29.999995, 223.007423)">
                <path d="M6.92949738,6.76371134 L0.395889131,10.611134 C0.132563012,9.80603395 -0.00106424275,8.96418224 6.38258926e-06,8.1171134 C6.38258926e-06,4.04453608 3.03836336,0.696082474 6.92949738,0.30185567 L6.92949738,6.76371134 Z M7.36661078,8.32 L14.0206314,12.6028866 C12.6292912,14.6391753 10.3175386,15.9719588 7.69898191,15.9719588 C4.85197161,15.9719588 2.36537367,14.3950515 1.0334149,12.0503093 L7.36661078,8.32 Z M8.17073449,3.30226804 L12.4519716,0.824742268 L13.2725902,2.24989691 L8.99135305,4.72742268 L8.17073449,3.30226804 Z M7.94805408,0.82556701 L9.37403346,-1.24344979e-14 L10.1963015,1.42762887 L8.77032212,2.25319588 L7.94805408,0.82556701 Z M12.8965077,9.89773196 L14.3224871,9.07216495 L15.1447551,10.4997938 L13.7187757,11.3253608 L12.8965077,9.89773196 Z M8.2820747,6.19051546 L13.9909407,2.88659794 L14.8107345,4.31010309 L9.10186851,7.61402062 L8.2820747,6.19051546 Z M10.6449613,8.25072165 L14.9261984,5.77319588 L15.746817,7.19835052 L11.4655799,9.67587629 L10.6449613,8.25072165 Z" id="形状"></path>
            </g>
        </g>
    </g>
</svg>