<?xml version="1.0" encoding="UTF-8"?>
<svg width="24px" height="25px" viewBox="0 0 24 25" version="1.1" xmlns="http://www.w3.org/2000/svg" xmlns:xlink="http://www.w3.org/1999/xlink">
    <!-- Generator: Sketch 63 (92445) - https://sketch.com -->
    <title>数据统计</title>
    <desc>Created with Sketch.</desc>
    <g id="页面-1" stroke="none" stroke-width="1" fill="none" fill-rule="evenodd">
        <g id="1-分销中心" transform="translate(-437.000000, -1070.000000)" fill="#FFFFFF" fill-rule="nonzero">
            <g id="数据统计" transform="translate(437.000000, 1070.000000)">
                <path d="M22.1286125,8.9515292 C23.1614031,8.9515292 24,9.78093794 24,10.8044636 L24,23.1470656 C24,24.1691207 23.1621304,25 22.1286125,25 L19.6368233,25 C18.6040326,25 17.7654357,24.169856 17.7654357,23.1470656 L17.7654357,10.8015224 C17.7654357,9.77946736 18.6033053,8.94858802 19.6368233,8.94858802 L22.1286125,8.94858802 L22.1286125,8.9515292 L22.1286125,8.9515292 Z M4.67517808,11.4191672 C5.70724142,11.4191672 6.54438367,12.248576 6.54438367,13.2721016 L6.54438367,23.1448597 C6.54438367,24.1676501 5.70651409,24.9977941 4.67372345,24.9977941 L2.18193423,24.9977941 C1.14914359,24.9977941 0.310546701,24.1683854 0.310546701,23.1448597 L0.310546701,13.2698958 C0.310546701,12.2463701 1.14841629,11.4169614 2.18193423,11.4169614 L4.67445078,11.4169614 L4.67445078,11.4191672 L4.67517808,11.4191672 Z M13.4022589,13.8868053 C14.4350496,13.8868053 15.2729192,14.7169493 15.2729192,15.7397397 L15.2729192,23.1448597 C15.2729192,24.1676501 14.4350496,24.9977941 13.4022589,24.9977941 L10.9082877,24.9977941 C9.87549711,24.9977941 9.03690022,24.1683854 9.03690022,23.1448597 L9.03690022,15.7390044 C9.03690022,14.7169493 9.87476981,13.8868053 10.9082877,13.8868053 L13.4008043,13.8868053 L13.4022589,13.8868053 Z M19.8557458,1.86773152 L18.3836554,1.87729032 C17.8730376,1.88467117 17.4524599,1.47361157 17.4425068,0.957440738 C17.4374156,0.450089642 17.8541684,0.0324441162 18.3691091,0.0272970785 L22.1213393,4.50851123e-05 C22.5007553,-0.00368050843 22.8451275,0.223776058 22.9941201,0.576559778 C23.0355772,0.673618241 23.0632153,0.795676616 23.0632153,0.925087909 L23.0632153,4.64566257 C23.0632153,5.15595483 22.6442805,5.5706592 22.1286125,5.5706592 C21.6136718,5.5706592 21.194737,5.15595483 21.194737,4.64566257 L21.194737,3.16110915 L12.8167685,11.4559318 C12.5407985,11.7275596 12.1295886,11.8031447 11.7767047,11.6471076 L0.554198013,6.70962562 C0.329318405,6.6129302 0.152320354,6.42891367 0.0630021377,6.19895243 C-0.0263160788,5.96899118 -0.020457789,5.71238637 0.0792597618,5.48683597 C0.296355263,5.01711098 0.844476093,4.80825151 1.31424463,5.01624943 L11.9476242,9.69490883 L19.8557458,1.86773152 Z" id="形状"></path>
            </g>
        </g>
    </g>
</svg>