<?xml version="1.0" encoding="UTF-8"?>
<svg width="25px" height="18px" viewBox="0 0 25 18" version="1.1" xmlns="http://www.w3.org/2000/svg" xmlns:xlink="http://www.w3.org/1999/xlink">
    <!-- Generator: Sketch 63 (92445) - https://sketch.com -->
    <title>分销商管理</title>
    <desc>Created with Sketch.</desc>
    <g id="页面-1" stroke="none" stroke-width="1" fill="none" fill-rule="evenodd">
        <g id="1-分销中心" transform="translate(-80.000000, -1265.000000)" fill="#FFFFFF" fill-rule="nonzero">
            <g id="分销商管理" transform="translate(80.000000, 1265.000000)">
                <path d="M9.80655562,0.00174704889 C9.94357872,0.0677520839 10.394949,0.234084772 10.9511016,0.313290814 C11.4373992,0.384576252 11.528748,0.252566182 12.160129,0.189201348 C13.4336378,0.0624716811 14.1751746,0.0228686601 15.0214938,1.06310801 C17.5711983,1.73107897 16.7221924,5.02605032 16.5072542,5.73626449 C16.8054809,6.02404644 16.9774315,6.42271686 16.8780226,6.85306968 C16.6630844,7.78770098 16.2009672,8.16788998 15.7442235,8.33158247 C15.4406233,9.17116651 15.14777,9.701847 14.8038689,10.0582742 C14.7178936,10.4463838 14.6399785,10.9717839 14.6963998,11.4945437 C14.9274584,13.6832707 19.615798,12.5295027 19.6104291,16.3736359 C19.6104291,16.9650411 17.5873186,18 12.5335841,18 C7.47984954,18 5.45674369,16.9676813 5.45674369,16.3736359 C5.45674369,12.5268625 10.1450833,13.6806305 10.3761419,11.4919035 C10.4325631,10.9691437 10.354648,10.4411034 10.2686728,10.0529938 C9.92477163,9.69656659 9.63191832,9.16588611 9.32831811,8.32630207 C8.87426115,8.16260958 8.40945728,7.78242058 8.19451908,6.84778928 C8.0897367,6.39367464 8.28855454,5.97652282 8.6163353,5.68610067 L8.6163353,5.68610067 L8.6163353,5.66761926 L8.46587856,5.03925132 C8.46587856,4.94948447 8.47393874,4.86235783 8.4793122,4.77523118 C8.31542182,3.91716573 8.14078452,2.78187912 8.78828587,1.12647285 C8.99516389,0.603712968 9.72864052,-0.0378559721 9.80655562,0.00174704889 Z M10.4325631,12.2443609 L11.7168189,17.3663517 L12.1762493,13.6357471 L11.9263837,13.6410275 L12.0123589,12.8912103 L10.4325631,12.2443609 Z M14.7662547,12.2417207 L13.1864589,12.8885701 L13.2724342,13.6383873 L13.0225685,13.6331069 L13.4846857,17.3663517 L14.7662547,12.2417207 Z M3.7721655,0.989182373 C3.89038152,1.0472668 4.28264374,1.19247788 4.7662547,1.26112312 C5.18807093,1.32184775 5.26598603,1.20567889 5.81407845,1.15287486 C6.52874798,1.08422962 7.05265986,1.0446266 7.53089737,1.27168392 C7.0177324,2.90596859 7.38312735,5.40359912 7.38312735,5.40359912 C7.06072004,5.91315799 6.95056421,6.5098435 7.08490059,7.09596821 C7.33476625,8.1916518 7.88285868,8.79625792 8.42020419,9.13156349 C8.43632456,9.17116651 8.45244492,9.20284893 8.46856529,9.23981175 C8.35572273,9.43518665 7.96883396,10.5203094 8.01719506,10.9744241 C8.05749597,11.3651739 8.18377217,11.4523005 8.21063944,11.6661568 C8.18377217,11.8272091 8.04674906,12.0410654 7.69210102,12.1493137 C6.29768941,12.5691057 4.3175712,13.3796475 4.32025793,16.3762761 C4.32025793,16.4422812 4.32831811,16.5082862 4.33637829,16.571651 C1.26813541,16.3657153 1.42108547e-14,15.652861 1.42108547e-14,15.2145875 C1.42108547e-14,11.8747327 4.07039226,12.8753691 4.27189683,10.9744241 C4.32025793,10.5203094 4.25308974,10.0635546 4.17786136,9.72560881 C3.87963461,9.41406504 3.62439549,8.95467 3.36109618,8.22597441 C2.96346051,8.08340354 2.5631381,7.75337836 2.37506717,6.94019633 C2.28371843,6.54416612 2.455669,6.17981833 2.74046212,5.92899919 L2.74046212,5.92899919 L2.74046212,5.91315799 L2.60881247,5.3666363 C2.60881247,5.29007046 2.61418592,5.21350461 2.61955938,5.13693877 C2.47716282,4.38976178 2.32401934,3.40496665 2.88823213,1.96605689 C3.06555615,1.51194225 3.70499731,0.954859755 3.7721655,0.989182373 Z M18.5249866,1.15287486 C19.6292316,1.0446266 20.2740462,1.01030398 21.0102096,1.91325286 C23.2240731,2.49409717 22.4879097,5.35343529 22.2998388,5.97124242 C22.5577646,6.21942135 22.7082214,6.56528773 22.6222461,6.94019633 C22.4341752,7.75337836 22.031166,8.08340354 21.6362171,8.22597441 C21.3729178,8.95467 21.1176787,9.41670525 20.8194519,9.72560881 C20.7442235,10.0635546 20.6770553,10.5203094 20.7254164,10.9744241 C20.926921,12.8780093 25,11.8747327 25,15.2066669 C25,15.6423001 23.7560451,16.3472339 20.7469103,16.55845 C20.7549704,16.4950852 20.7603439,16.4317204 20.7603439,16.3683555 C20.7603439,13.3743671 18.4685653,12.5479841 17.101021,12.0542664 C16.8619022,11.96978 16.6496507,11.890574 16.4669533,11.8140081 C16.2788823,11.6635166 16.9398173,11.3493327 16.9801182,10.9717839 C17.0284793,10.5176692 16.9613111,10.0609144 16.8860828,9.72296861 C16.7786136,9.60943995 16.7598066,9.62528116 16.6603976,9.46686907 C16.5529285,9.334859 16.6308436,9.19756853 16.6577109,9.13156349 C17.1950564,8.79625792 17.7404621,8.18901159 17.9930145,7.09596821 C18.1192907,6.55208672 18.027942,5.98972383 17.751209,5.49864637 C17.9822676,4.49536983 18.1783987,2.85052436 17.4395486,1.55418547 C17.3723804,1.43537641 17.2944653,1.32184775 17.2138635,1.21359949 C17.2971521,1.2320809 17.3858141,1.24792211 17.4771628,1.26112312 C17.898979,1.32184775 17.9768941,1.20567889 18.5249866,1.15287486 Z" id="形状结合"></path>
            </g>
        </g>
    </g>
</svg>