<?xml version="1.0" encoding="UTF-8"?>
<svg width="39px" height="42px" viewBox="0 0 39 42" version="1.1" xmlns="http://www.w3.org/2000/svg" xmlns:xlink="http://www.w3.org/1999/xlink">
    <!-- Generator: Sketch 63 (92445) - https://sketch.com -->
    <title>累计分销商</title>
    <desc>Created with Sketch.</desc>
    <g id="页面-1" stroke="none" stroke-width="1" fill="none" fill-rule="evenodd">
        <g id="画板" transform="translate(-427.000000, -674.000000)" fill="#FFFFFF" fill-rule="nonzero">
            <path d="M449.738976,695.000003 C457.039649,696.231128 463.133943,701.470627 465.676699,708.707751 C466.922078,712.24625 464.415721,716.000003 460.793984,716.000003 L460.793984,716.000003 L432.204881,716.000003 C428.585743,716.000003 426.079387,712.24625 427.322165,708.707751 C429.864921,701.470627 435.959215,696.228503 443.259889,695.000003 L443.259889,695.000003 L446.499432,698.375752 Z M446.499432,698.394127 L443.005093,709.322001 L446.499432,712.962875 L449.993772,709.329876 L446.499432,698.394127 Z M446.324355,674.000005 C452.068017,674.00581 456.719519,678.71152 456.71378,684.510509 C456.708031,690.309499 452.047217,695.005807 446.303556,695.000005 C440.559894,694.994209 435.908393,690.288499 435.914131,684.489509 C435.91988,678.69052 440.580694,673.994212 446.324355,674.000005 Z" id="累计分销商"></path>
        </g>
    </g>
</svg>