<?xml version="1.0" encoding="UTF-8"?>
<svg width="42px" height="33px" viewBox="0 0 42 33" version="1.1" xmlns="http://www.w3.org/2000/svg" xmlns:xlink="http://www.w3.org/1999/xlink">
    <!-- Generator: Sketch 63 (92445) - https://sketch.com -->
    <title>累计客户</title>
    <desc>Created with Sketch.</desc>
    <g id="页面-1" stroke="none" stroke-width="1" fill="none" fill-rule="evenodd">
        <g id="画板" transform="translate(-283.000000, -679.000000)" fill="#FFFFFF" fill-rule="nonzero">
            <path d="M307.320705,700.194371 C307.320705,700.194371 305.9176,699.822549 305.543403,699.636637 C304.795091,699.171839 304.327376,698.242242 304.327376,697.312645 C304.327376,696.290153 305.169247,695.453532 305.730522,694.802782 C307.133627,693.12954 307.881939,690.898564 307.881939,688.388701 C307.881939,683.183105 304.140298,679 299.556786,679 C294.973275,679 291.231593,683.275999 291.231593,688.481636 C291.231593,690.991499 292.073464,693.222475 293.383051,694.895717 C294.224922,695.360516 294.786197,696.383089 294.786197,697.40558 C294.786197,698.335177 294.318481,699.171798 293.570129,699.729573 L293.570129,699.822508 C293.47661,699.822508 293.383092,699.915443 293.383092,699.915443 C292.915335,700.19433 292.447661,700.380241 291.886386,700.380241 C288.331865,701.588685 285.338495,703.447838 283.561234,705.77179 L283.654752,705.77179 C283.187078,706.422581 283,707.166226 283,707.909871 C283,710.140847 284.870779,712 287.209356,712 L311.904217,712 C314.336312,712 316.207132,710.233823 316.207132,707.909871 C316.207132,706.980274 315.832976,706.143653 315.365261,705.400008 C313.587959,703.076056 310.781749,701.309879 307.320705,700.194371 Z M324.064569,704.2845 C322.474386,702.332412 320.042332,700.65917 316.955444,699.729573 C316.955444,699.729573 315.739417,699.450685 315.365261,699.264774 C314.710427,698.800016 314.336312,698.056331 314.336312,697.21971 C314.336312,696.290153 315.084624,695.546468 315.552339,695.081669 C316.768366,693.594338 317.516719,691.64225 317.516719,689.411233 C317.516719,684.856306 314.242752,681.045024 310.126915,681.045024 C309.472163,681.045024 308.817369,681.138 308.256136,681.323911 C309.659241,683.368975 310.407552,685.785903 310.407552,688.481677 C310.407552,691.363363 309.378644,694.152113 307.601342,696.476065 L307.414265,696.661935 L307.414265,696.754911 C307.227145,696.940822 306.946549,697.21971 306.85299,697.498597 C306.85299,697.591532 306.85299,697.591532 306.946549,697.591532 C307.133586,697.684508 307.414265,697.777443 307.694861,697.777443 L307.78842,697.777443 L308.162576,697.963395 C311.997776,699.171839 315.271702,701.309879 317.423159,704.005613 C318.35859,705.214097 318.919824,706.608452 318.919824,708.095782 C318.919824,708.932403 318.732746,709.583113 318.452108,710.326758 L321.1648,710.326758 C323.316258,710.326758 325,708.746492 325,706.701428 C324.90644,705.678895 324.625844,704.93521 324.064569,704.2845 L324.064569,704.2845 Z" id="累计客户"></path>
        </g>
    </g>
</svg>