<?xml version="1.0" encoding="UTF-8"?>
<svg width="52px" height="48px" viewBox="0 0 52 48" version="1.1" xmlns="http://www.w3.org/2000/svg" xmlns:xlink="http://www.w3.org/1999/xlink">
    <!-- Generator: Sketch 63 (92445) - https://sketch.com -->
    <title>已支出</title>
    <desc>Created with Sketch.</desc>
    <g id="页面-1" stroke="none" stroke-width="1" fill="none" fill-rule="evenodd">
        <g id="画板" transform="translate(-496.000000, -672.000000)" fill="#FFFFFF" fill-rule="nonzero">
            <path d="M543.942035,696.143911 C547.936344,700.173048 549.104007,706.214536 546.898738,711.441898 C544.693469,716.66926 539.551347,720.048819 533.878084,719.999467 C526.180637,719.964777 519.968015,713.697987 520,706.000503 C520,700.327007 523.424048,695.214388 528.670333,693.054556 C533.916617,690.894725 539.947725,692.114775 543.942035,696.143911 Z M517.6944,672 C520.094,672 522.2024,673.5344 523.3924,675.8458 C523.9832,675.7758 524.5782,675.7394 525.1746,675.7408 C529.719,675.7408 533.4024,677.7498 533.4024,680.2292 C533.4024,681.9414 531.644,683.4296 529.0596,684.1856 C531.689324,685.728849 533.869484,687.747768 535.405708,690.060999 C534.942309,690.020573 534.473557,690 534,690 C530.032701,690 526.40265,691.443928 523.606707,693.834924 C523.40007,693.73775 523.169168,693.688538 522.9318,693.6958 L519.9176,693.6958 L523.9146,689.6974 C524.479246,689.109634 524.469749,688.178109 523.893236,687.601977 C523.316724,687.025846 522.385192,687.016965 521.7978,687.582 L517,692.3798 L517,692.3812 L516.9986,692.3798 L512.2008,687.582 C511.61185,687.029308 510.690601,687.043629 510.119115,687.614359 C509.547628,688.18509 509.532088,689.106319 510.084,689.696 L514.0824,693.6944 L510.9604,693.6944 C510.152049,693.719132 509.509568,694.381571 509.509568,695.1903 C509.509568,695.999029 510.152049,696.661468 510.9604,696.6862 L515.4516,696.6862 L515.4516,698.9304 L510.9632,698.9304 C510.417854,698.913715 509.906638,699.195126 509.629035,699.664825 C509.351431,700.134524 509.351431,700.718076 509.629035,701.187775 C509.906638,701.657474 510.417854,701.938885 510.9632,701.9222 L515.4516,701.9222 L515.4516,705.663 C515.434915,706.208346 515.716326,706.719561 516.186025,706.997165 C516.655724,707.274768 517.239276,707.274768 517.708975,706.997165 C517.824347,706.928977 517.928358,706.846695 518.019383,706.753274 C518.133954,709.274061 518.834763,711.644189 519.987591,713.729609 C518.99582,713.836239 517.980046,713.8908 516.9468,713.8908 C505.3786,713.8908 496,707.0532 496,697.9644 C496,692.4218 499.4874,687.3244 504.8326,684.1856 C502.2468,683.4296 500.4884,681.9414 500.4884,680.2292 C500.4884,677.7498 504.1732,675.7408 508.7176,675.7408 C509.8376,675.7408 510.9044,675.8626 511.8774,676.0824 C513.0436,673.6408 515.2122,672 517.6944,672 Z M533.952197,698.074894 C533.729255,698.185954 533.578066,698.404671 533.545313,698.653502 L533.538664,698.761761 L533.538664,701.851218 C533.538836,702.053311 533.461754,702.247285 533.324214,702.39088 C533.214893,702.505116 533.073881,702.579436 532.922372,702.604683 L532.807104,702.614274 L522.731567,702.614274 C522.536686,702.61516 522.350128,702.696051 522.212933,702.839152 C522.103178,702.953633 522.032208,703.100426 522.008647,703.257726 L522,703.37733 L522,707.622248 C522,707.82411 522.076871,708.017855 522.214053,708.161491 C522.323452,708.27581 522.464587,708.350152 522.616212,708.375348 L522.731567,708.384886 L532.8067,708.384886 C533.000989,708.385059 533.187159,708.465485 533.323809,708.608281 C533.433782,708.723198 533.5051,708.870303 533.529185,709.028011 L533.53826,709.147942 L533.53826,712.237818 C533.53577,712.530296 533.696784,712.797984 533.951608,712.925016 C534.174579,713.036169 534.434318,713.022156 534.64301,712.893548 L534.729067,712.831445 L542.728075,706.092789 C542.900183,705.947228 543,705.729475 543,705.49958 C543,705.308001 542.930683,705.124854 542.807978,704.98489 L542.728075,704.906371 L534.729472,698.168552 C534.509741,697.984448 534.206988,697.947968 533.952197,698.074894 Z M520.98818,696.687013 C520.481062,697.394285 520.03018,698.144611 519.642073,698.931451 L518.4434,698.9318 L518.4434,696.6876 L520.98818,696.687013 Z" id="已支出"></path>
        </g>
    </g>
</svg>