<?xml version="1.0" encoding="UTF-8"?>
<svg width="17px" height="16px" viewBox="0 0 17 16" version="1.1" xmlns="http://www.w3.org/2000/svg" xmlns:xlink="http://www.w3.org/1999/xlink">
    <!-- Generator: Sketch 63 (92445) - https://sketch.com -->
    <title>收入总览</title>
    <desc>Created with Sketch.</desc>
    <g id="页面-1" stroke="none" stroke-width="1" fill="none" fill-rule="evenodd">
        <g id="1920" transform="translate(-30.000000, -100.000000)" fill="#FFFFFF" fill-rule="nonzero">
            <g id="收入总览" transform="translate(30.000000, 99.999999)">
                <path d="M13.2648601,15.9527981 L3.34353147,15.9527981 C2.89697256,15.9527981 2.53496503,15.5907905 2.53496503,15.1442316 C2.53496503,14.6976727 2.89697256,14.3356652 3.34353147,14.3356652 L13.2648601,14.3356652 C13.7114191,14.3356652 14.0734266,14.6976727 14.0734266,15.1442316 C14.0734266,15.5907905 13.7114191,15.9527981 13.2648601,15.9527981 Z M15.7178759,4.28886629e-07 L0.890515734,4.28886629e-07 C0.654568075,-0.000231087157 0.428192089,0.0932763678 0.261187969,0.259952627 C0.0941838485,0.426628887 0.000231718736,0.652820682 -1.95399252e-14,0.888768342 L-1.95399252e-14,12.441653 C0.000231718736,12.6776006 0.0941838485,12.9037924 0.261187969,13.0704687 C0.428192089,13.2371449 0.654568075,13.3306524 0.890515734,13.3304209 L15.7178759,13.3304209 C15.9538235,13.3306524 16.1801995,13.2371449 16.3472036,13.0704687 C16.5142078,12.9037924 16.6081599,12.6776006 16.6083916,12.441653 L16.6083916,0.888768342 C16.6081599,0.652820682 16.5142078,0.426628887 16.3472036,0.259952627 C16.1801995,0.0932763678 15.9538235,-0.000231087157 15.7178759,4.28886629e-07 Z M13.9499563,9.04042918 C13.6368114,9.18296578 13.2673888,9.04499458 13.1243444,8.73208128 L11.5351836,5.24825261 C11.5080797,5.18873294 11.4505687,5.14882579 11.3853274,5.14426665 C11.3200861,5.13970751 11.2575837,5.17122798 11.222465,5.22639946 L8.48863636,9.54982603 C8.43567159,9.63347339 8.35031904,9.69133981 8.25300712,9.70957543 C8.1556952,9.72781105 8.05518199,9.70477468 7.97552448,9.64597988 L5.21350524,7.60642568 C5.14389427,7.55501606 5.04742051,7.56100536 4.9847028,7.62063023 L3.43553322,9.09090995 C3.18666714,9.32824998 2.79251922,9.31890627 2.5551792,9.0700402 C2.31783917,8.82117412 2.32718288,8.4270262 2.57604895,8.18968617 L4.77556818,6.1009624 C4.90106224,5.98198702 5.09379996,5.97010782 5.23295455,6.07277184 L7.75327797,7.93269317 C7.80309251,7.96941204 7.86591977,7.98379225 7.92674678,7.97239754 C7.98757378,7.96100284 8.04093599,7.92485689 8.07408217,7.87259701 L11.2246503,2.89270191 C11.294705,2.78227635 11.4195767,2.71904731 11.5500467,2.72793678 C11.6805168,2.73682625 11.7956582,2.81640838 11.8500874,2.93531554 L14.2589598,8.21678408 C14.3274144,8.36695544 14.3333061,8.53819256 14.275335,8.69271384 C14.2173639,8.84723511 14.1002943,8.97234133 13.9499563,9.04042918 Z" id="形状"></path>
            </g>
        </g>
    </g>
</svg>