<?xml version="1.0" encoding="UTF-8"?>
<svg width="42px" height="42px" viewBox="0 0 42 42" version="1.1" xmlns="http://www.w3.org/2000/svg" xmlns:xlink="http://www.w3.org/1999/xlink">
    <!-- Generator: Sketch 63 (92445) - https://sketch.com -->
    <title>累计收益</title>
    <desc>Created with Sketch.</desc>
    <g id="页面-1" stroke="none" stroke-width="1" fill="none" fill-rule="evenodd">
        <g id="画板" transform="translate(-578.000000, -674.000000)" fill="#FFFFFF" fill-rule="nonzero">
            <g id="累计收益" transform="translate(578.000000, 674.000000)">
                <path d="M15.8774,4.0824 C17.0436,1.64080001 19.2122,6.39488462e-14 21.6944,6.39488462e-14 C24.094,6.39488462e-14 26.2024,1.53439999 27.3924,3.84580001 C27.9832,3.7758 28.5782,3.73940003 29.1746,3.74080001 C33.719,3.74080001 37.4024,5.7498 37.4024,8.22919999 C37.4024,9.9414 35.644,11.4296 33.0596,12.1856 C38.4034,15.3216 41.8908,20.4218 41.8908,25.9644 C41.8908,35.0532 32.5136,41.8908 20.9468,41.8908 C9.3786,41.8908 5.18696197e-13,35.0532 5.18696197e-13,25.9644 C5.18696197e-13,20.4218 3.48739999,15.3244 8.8326,12.1856 C6.24679999,11.4296 4.48840001,9.9414 4.48840001,8.22919999 C4.48840001,5.7498 8.1732,3.74079997 12.7176,3.74080001 C13.8376,3.74080001 14.9044,3.86260001 15.8774,4.0824 Z M20.9986,20.3798 L16.2008,15.582 C15.6118502,15.029308 14.6906011,15.0436286 14.1191146,15.6143592 C13.547628,16.1850898 13.5320881,17.1063191 14.084,17.696 L18.0824,21.6944 L14.9604,21.6944 C14.1520489,21.7191317 13.5095676,22.3815707 13.5095676,23.1903 C13.5095676,23.9990293 14.1520489,24.6614683 14.9604,24.6862 L19.4516,24.6862 L19.4516,26.9304 L14.9632,26.9304 C14.4178539,26.9137147 13.9066384,27.1951261 13.6290346,27.6648249 C13.3514309,28.1345237 13.3514309,28.7180763 13.6290346,29.1877751 C13.9066384,29.6574739 14.4178539,29.9388853 14.9632,29.9222 L19.4516,29.9222 L19.4516,33.663 C19.4349149,34.208346 19.7163264,34.7195612 20.1860251,34.9971648 C20.6557238,35.2747684 21.2392762,35.2747684 21.7089749,34.9971648 C22.1786736,34.7195612 22.4600851,34.208346 22.4434,33.663 L22.4434,29.9236 L26.9318,29.9236 C27.7401511,29.8988683 28.3826324,29.2364293 28.3826324,28.4277 C28.3826324,27.6189707 27.7401511,26.9565317 26.9318,26.9318 L22.4434,26.9318 L22.4434,24.6876 L26.9318,24.6876 C27.4771461,24.7042853 27.9883616,24.4228739 28.2659654,23.9531751 C28.5435691,23.4834763 28.5435691,22.8999237 28.2659654,22.4302249 C27.9883616,21.9605261 27.4771461,21.6791147 26.9318,21.6958 L23.9176,21.6958 L27.9146,17.6974 C28.4792461,17.1096342 28.4697488,16.1781086 27.8932363,15.6019774 C27.3167238,15.0258462 26.3851921,15.0169652 25.7978,15.582 L21,20.3798 L21,20.3812 L20.9986,20.3798 Z" id="形状"></path>
            </g>
        </g>
    </g>
</svg>