<?xml version="1.0" encoding="UTF-8"?>
<svg width="24px" height="24px" viewBox="0 0 24 24" version="1.1" xmlns="http://www.w3.org/2000/svg" xmlns:xlink="http://www.w3.org/1999/xlink">
    <!-- Generator: Sketch 63 (92445) - https://sketch.com -->
    <title>安装费</title>
    <desc>Created with Sketch.</desc>
    <g id="页面-1" stroke="none" stroke-width="1" fill="none" fill-rule="evenodd">
        <g id="1-分销中心" transform="translate(-437.000000, -1478.000000)" fill="#FFFFFF" fill-rule="nonzero">
            <g id="安装费" transform="translate(437.000000, 1478.000000)">
                <path d="M23.8065933,5.50384275 C23.8065933,5.58590032 23.8065933,5.6679579 23.8065933,5.75001548 C23.8018267,5.75978998 23.7933796,5.7693533 23.7928366,5.779339 C23.7870443,5.8869189 23.7866823,5.99498149 23.7766966,6.102139 C23.7605867,6.27467108 23.7485798,6.44856073 23.7165411,6.61840784 C23.6540627,6.94962479 23.5714319,7.27607515 23.4508797,7.59232866 C23.3225743,7.92897588 23.1701342,8.25334463 22.9808588,8.55994431 C22.7288636,8.9681204 22.4376799,9.3452232 22.0810009,9.66796288 C21.9186054,9.81491229 21.7538265,9.96014216 21.5811436,10.0946321 C21.1999681,10.3915779 20.7772509,10.6189559 20.3313344,10.8014133 C20.0476927,10.9174705 19.7539448,11.0038723 19.4538312,11.0704233 C19.1627079,11.1349833 18.8700459,11.1779731 18.5719839,11.1799038 C18.2920831,11.1817441 18.0120616,11.1846101 17.7322815,11.1787876 C17.543006,11.1748657 17.3902341,11.246998 17.2613555,11.3764498 C16.4455463,12.195668 15.6326635,13.0178124 14.8153761,13.8355825 C11.8251017,16.8275464 8.83352992,19.8182131 5.8420487,22.8089703 C5.75552624,22.8954626 5.6655344,22.9786364 5.57530127,23.0612973 C5.35208656,23.2658077 5.10404343,23.433905 4.83406798,23.5712911 C4.53501038,23.7234596 4.2231916,23.8337245 3.8899232,23.8805456 C3.80460746,23.8925224 3.71992527,23.9089641 3.63494136,23.9233543 C3.4080763,23.9233543 3.18121126,23.9233543 2.9543462,23.9233543 C2.88480843,23.9135798 2.81463715,23.906973 2.74579325,23.8934878 C2.40121179,23.8260316 2.07047754,23.7208048 1.76242978,23.5469755 C1.37992686,23.3311219 1.05048983,23.0535139 0.779609346,22.7093849 C0.514370312,22.3723757 0.313992954,21.9988026 0.189096492,21.5870666 C0.0851971108,21.2445969 0.0371391509,20.8939215 0.0601876769,20.5366995 C0.0715912736,20.3597629 0.0929805425,20.1819212 0.128880719,20.0084539 C0.196759228,19.6805253 0.320871315,19.3727491 0.487701592,19.081143 C0.640382989,18.8142145 0.812251356,18.5601981 1.02876872,18.3434695 C4.84266592,14.5257108 8.65903691,10.7103656 12.474895,6.89450743 C12.4953792,6.8740232 12.5164065,6.85405183 12.5362572,6.83299443 C12.6728589,6.68803611 12.7150341,6.51290955 12.6991354,6.31956141 C12.6801898,6.08925716 12.6521937,5.85925463 12.644893,5.62855823 C12.6395532,5.45955584 12.6538228,5.28889419 12.6725874,5.12046498 C12.6998896,4.87577049 12.723451,4.62893408 12.7764868,4.38918721 C12.8891047,3.88024923 13.0706269,3.39526486 13.3220188,2.93631565 C13.5595332,2.50267759 13.8499024,2.10831854 14.1897173,1.75166978 C14.3528369,1.58046509 14.5272695,1.41665165 14.714403,1.2726587 C14.9385529,1.10015678 15.178692,0.947626238 15.4174434,0.795095696 C15.7054896,0.611099676 16.016343,0.470183903 16.3403799,0.364172759 C16.6086659,0.276413384 16.8803911,0.192545725 17.1567321,0.137850737 C17.4375681,0.0822507075 17.7251014,0.05235398 18.0111867,0.0333178361 C18.3287676,0.0121698998 18.6449608,0.0587798054 18.959193,0.104001975 C19.1395386,0.129946639 19.3081187,0.193390419 19.4423975,0.322540596 C19.6593673,0.53121421 19.6975905,0.819381103 19.5941135,1.09626506 C19.5141073,1.31036896 19.3736441,1.48311221 19.2167995,1.64261162 C18.9098378,1.95476223 18.5984112,2.26250831 18.2888249,2.57209463 C17.9594482,2.90147131 17.6294983,3.23024463 17.3009965,3.56046604 C17.1564002,3.70581654 17.0179884,3.85698953 16.9133046,4.03495189 C16.7539862,4.30577205 16.6927146,4.5924607 16.7660837,4.9043398 C16.8330572,5.18903735 16.9903543,5.42169469 17.1894042,5.62391229 C17.6002955,6.04128968 18.0215344,6.44850038 18.4370715,6.86135256 C18.5737939,6.99716993 18.7312117,7.10128045 18.9053729,7.18056256 C19.1018585,7.27001135 19.3117087,7.29839965 19.5217399,7.26621014 C19.8263786,7.21950973 20.0798822,7.0623031 20.2963996,6.84795787 C20.7046058,6.44388467 21.1074723,6.03438116 21.5160708,5.63066999 C21.849852,5.30087096 22.182879,4.96992553 22.5276717,4.65186191 C22.7068106,4.48663054 22.9258621,4.39660855 23.1803612,4.44686881 C23.4585726,4.50180516 23.6815158,4.65267644 23.747011,4.97019702 C23.7775412,5.11820233 23.7776921,5.27242229 23.7924443,5.42374611 C23.795069,5.45068632 23.8017664,5.47717403 23.8065933,5.50384275 Z M3.22996309,19.0867845 C2.30060074,19.0752904 1.60178396,19.8519412 1.54989463,20.6425598 C1.47911999,21.7208024 2.33948759,22.457782 3.19695905,22.4726851 C4.17136256,22.4896396 4.9111176,21.7038177 4.92049991,20.79322 C4.93021409,19.8511869 4.16445404,19.0731182 3.22996309,19.0867845 Z" id="形状"></path>
                <path d="M3.0412005,0.0156392099 C3.13475218,0.0347658608 3.22999325,0.0479795401 3.32143314,0.0743767394 C3.47948446,0.119960938 3.63940622,0.163433343 3.7909714,0.226122907 C4.14306477,0.371775088 4.4372653,0.602441362 4.70322836,0.872658137 C4.85844387,1.03034744 5.02038691,1.18146008 5.17931312,1.33552922 C5.33476999,1.48621949 5.49134307,1.63582373 5.64556303,1.78778107 C6.05935041,2.19553482 6.47380147,2.60259466 6.88478323,3.01315404 C7.21723706,3.34524587 7.54531651,3.6816819 7.87472338,4.01679057 C8.08571996,4.23140731 8.2956908,4.44704979 8.50605383,4.66233025 C8.70628034,4.867263 8.90635601,5.07231642 9.10649201,5.27730952 C9.30493859,5.48058302 9.50311368,5.6841582 9.7018921,5.88706969 C9.96148968,6.15206739 10.222294,6.4158885 10.4811072,6.68164042 C10.5696811,6.77259761 10.6538806,6.86783871 10.7436914,6.96504071 C10.448978,7.2531171 10.1527261,7.54273205 9.85182818,7.8368421 C9.75166966,7.72609455 9.65253688,7.6163727 9.55322308,7.50683187 C9.53865183,7.49078237 9.5233867,7.47533623 9.50803107,7.46001079 C9.12751925,7.07940846 8.74646439,6.69934917 8.36646542,6.31823396 C6.82064555,4.76800955 5.27582126,3.21681975 3.7281008,1.66849593 C3.61859012,1.5589551 3.50376987,1.45059083 3.34816218,1.39927468 C3.13529517,1.3290732 2.93856819,1.52465383 2.91045139,1.676762 C2.87717583,1.85671545 2.97244708,1.98767574 3.08370749,2.10424575 C3.2969365,2.32764145 3.51906515,2.54255991 3.73748311,2.76100802 C5.44231969,4.4658446 7.14685457,6.17095268 8.85241518,7.87500489 C9.02087456,8.04331341 9.19575976,8.20519611 9.37230422,8.37453037 C9.013423,8.71908166 8.65912736,9.05925858 8.29569077,9.40818426 C8.26193252,9.36220787 8.23131179,9.31897683 8.19903178,9.27698264 C8.16436848,9.23188113 8.1320885,9.18409466 8.0921156,9.1440916 C6.60639083,7.65703945 5.11930852,6.17134487 3.63385528,4.6840212 C3.13466165,4.18419404 2.64089832,3.67893662 2.14061863,3.18022568 C2.06287512,3.1027235 1.96887093,3.03719811 1.8728153,2.98316683 C1.6207296,2.84140634 1.37344065,3.04685195 1.34984912,3.27640198 C1.33929024,3.37924546 1.39277851,3.47412453 1.45196854,3.55799219 C1.48753688,3.6084033 1.53164284,3.65347462 1.57547727,3.69733921 C3.58202627,5.70455192 5.58875628,7.71158358 7.59654216,9.71755938 C7.67552258,9.79644929 7.76494119,9.86493116 7.84678759,9.93588682 C7.65223269,10.1234427 7.46304776,10.30768 7.27169071,10.4896246 C7.16245156,10.5934938 7.04871736,10.6925964 6.93911619,10.7960734 C6.90460374,10.8286551 6.88399885,10.8168593 6.85561052,10.7889839 C6.68739251,10.6237223 6.51567497,10.4619905 6.34887485,10.2952809 C4.5104232,8.45785495 2.67200174,6.62039885 0.835752358,4.78080083 C0.644214298,4.58890074 0.489451297,4.36689278 0.355112205,4.13028337 C0.198539121,3.85445528 0.098078921,3.55922904 0.0324328715,3.25078909 C0.0187968455,3.1866816 0.0107720814,3.12139758 0.00015285967,3.05662639 C0.00015285967,2.86837665 0.00015285967,2.68012695 0.00015285967,2.49187721 C0.00531161557,2.45805864 0.00911282429,2.42396854 0.0158705189,2.39048181 C0.0614848762,2.16406928 0.119045843,1.94251383 0.21301987,1.72907364 C0.34017895,1.44024304 0.507672936,1.17895604 0.716497376,0.945514328 C0.910810908,0.728272936 1.13109929,0.539419841 1.38409004,0.390207813 C1.65261739,0.231854805 1.93821999,0.120172022 2.24373361,0.0591417158 C2.32108494,0.0436955778 2.39879829,0.0300897111 2.47636079,0.0156392099 C2.66470106,0.0156392099 2.8529508,0.0156392099 3.0412005,0.0156392099 Z" id="路径"></path>
                <path d="M14.4361012,15.8274698 C14.8825306,15.3810705 15.3227152,14.9409463 15.7699893,14.4937024 C15.7893874,14.5074289 15.8140952,14.5205219 15.833433,14.539196 C16.013477,14.7130254 16.1944864,14.8859195 16.3716342,15.0626751 C17.0720499,15.7614617 17.7717114,16.4609723 18.4704376,17.1614785 C18.6863516,17.3779657 18.8976197,17.5990686 19.1123873,17.8167324 C19.2453085,17.9514335 19.3919562,18.0694818 19.5745645,18.1282495 C19.668086,18.1583574 19.7669473,18.176579 19.864813,18.1875602 C20.1443518,18.218905 20.4008119,18.3135125 20.6443298,18.4506573 C20.8742116,18.5801393 21.067771,18.7542703 21.2398204,18.9497906 C21.3660744,19.0932706 21.4769728,19.2512315 21.5858499,19.4088906 C21.8544075,19.7977892 22.1239606,20.1862051 22.3817179,20.5822536 C22.6701563,21.0254851 22.9468291,21.4764096 23.2269712,21.9250111 C23.3370249,22.1012539 23.4483155,22.2771648 23.5489265,22.4588379 C23.7003408,22.7323128 23.7509329,23.0413561 23.5574339,23.303518 C23.4278011,23.4791574 23.2536701,23.6115054 23.0521765,23.6967005 C22.9348825,23.7462669 22.8098351,23.709884 22.6892829,23.6833963 C22.4561731,23.6321706 22.2623422,23.4948449 22.0535177,23.3912472 C21.8949234,23.3125685 21.7421817,23.2216415 21.5891986,23.1321323 C21.3609156,22.9985474 21.1313958,22.8666218 20.9085733,22.7243484 C20.651721,22.5603238 20.397795,22.3911102 20.1495709,22.2143546 C19.8951622,22.0331944 19.645128,21.8453067 19.4007955,21.650782 C19.1922426,21.4847361 18.9852282,21.3146476 18.7939918,21.1293544 C18.4679337,20.8135232 18.2660177,20.4230559 18.1591317,19.9829316 C18.1258561,19.8459075 18.0972567,19.7075862 18.0592749,19.5718896 C18.0199657,19.4313961 17.9321158,19.3173301 17.8312332,19.2162665 C16.7197151,18.1027272 15.6068093,16.9905756 14.4940845,15.8782429 C14.4755914,15.8597799 14.4547451,15.8437002 14.4361012,15.8274698 Z" id="路径"></path>
            </g>
        </g>
    </g>
</svg>