<?xml version="1.0" encoding="UTF-8"?>
<svg width="42px" height="39px" viewBox="0 0 42 39" version="1.1" xmlns="http://www.w3.org/2000/svg" xmlns:xlink="http://www.w3.org/1999/xlink">
    <!-- Generator: Sketch 63 (92445) - https://sketch.com -->
    <title>累计订单</title>
    <desc>Created with Sketch.</desc>
    <g id="页面-1" stroke="none" stroke-width="1" fill="none" fill-rule="evenodd">
        <g id="画板" transform="translate(-211.000000, -676.000000)" fill="#FFFFFF" fill-rule="nonzero">
            <path d="M232.000023,676 C233.409446,676 234.70255,676.495187 235.72165,677.318776 L235.72165,677.318776 L252.438107,691.985666 C252.783685,692.400068 253,692.927287 253,693.510587 C253,694.792869 251.990609,695.830774 250.727757,695.887559 L250.727757,695.887559 L250.725037,695.893524 L250.669551,695.893524 C250.65351,695.893524 250.638549,695.898127 250.622555,695.898127 C250.606514,695.898127 250.591599,695.893524 250.575652,695.893524 L250.575652,695.893524 L245.745342,695.893524 L245.745342,711.17645 C245.745342,713.374568 244.094043,715 241.905568,715 L241.905568,715 L222.094385,715 C219.90591,715 218.254564,713.374614 218.254564,711.176497 L218.254564,711.176497 L218.254564,695.893477 L213.330402,695.893477 C212.979899,695.893477 212.739429,695.800104 212.739429,695.800104 C211.738528,695.518576 211,694.605324 211,693.510587 C211,692.909392 211.228369,692.36719 211.593036,691.947481 L211.593036,691.947481 L228.304147,677.299285 C229.3194,676.48847 230.602092,676 232.000023,676 Z M235.200328,689.618497 L231.973148,692.859874 L228.758726,689.631178 C228.13525,689.004997 227.124781,689.004997 226.50168,689.631178 C225.878204,690.257313 225.878204,691.272251 226.50168,691.89801 L229.979507,695.391795 L226.654629,695.390715 C225.779474,695.390715 225.264108,696.011448 225.264108,696.890413 C225.264108,697.769378 225.779474,698.449573 226.654629,698.449573 L230.090947,698.449573 L230.090947,700.361325 L226.654629,700.361325 C225.779474,700.361325 225.264108,700.930581 225.264108,701.81025 C225.264108,702.689215 225.779474,703.420089 226.654629,703.420089 L230.090947,703.420089 L230.090947,705.714163 C230.090947,706.812658 230.905645,707.625914 232.00007,707.625914 C233.094073,707.625914 233.909099,706.812658 233.909099,705.714163 L233.909099,703.420089 L237.443678,703.420089 C238.318787,703.420089 238.735985,702.833408 238.735985,701.954396 C238.735985,700.810858 238.126861,700.361325 237.251706,700.361325 L233.909099,700.361325 L233.909099,698.449573 L237.345371,698.449573 C238.220479,698.44962 238.735985,697.769425 238.735985,696.89046 C238.735985,696.011495 238.220526,695.390762 237.345371,695.390762 L233.975138,695.389822 L237.457327,691.885375 C238.080709,691.259523 238.080709,690.244631 237.457327,689.618497 C236.834226,688.992315 235.823382,688.992315 235.200328,689.618497 Z" id="累计订单"></path>
        </g>
    </g>
</svg>