<?xml version="1.0" encoding="UTF-8"?>
<svg width="30px" height="28px" viewBox="0 0 30 28" version="1.1" xmlns="http://www.w3.org/2000/svg" xmlns:xlink="http://www.w3.org/1999/xlink">
    <!-- Generator: Sketch 63 (92445) - https://sketch.com -->
    <title>logo</title>
    <desc>Created with Sketch.</desc>
    <g id="页面-1" stroke="none" stroke-width="1" fill="none" fill-rule="evenodd">
        <g id="logo">
            <path d="M26.1308792,17.2315733 L27.5203337,19.0637507 C25.4908549,24.2928083 20.4105636,28 14.4641596,28 C11.9196433,28 9.53372267,27.3212014 7.47756875,26.1348243 C10.0292732,26.2513549 11.9233657,25.9883676 13.1606027,25.3456704 C13.5445194,25.1462403 14.0584474,24.8563737 14.7023865,24.4760706 C15.0107872,24.4133625 15.3068609,24.2323185 15.5870152,23.9477289 C16.5497571,23.3630258 17.7251341,22.6318448 19.1128254,21.7529767 C18.6011507,23.2360989 17.9461217,24.4671162 17.1929952,25.3456704 C19.8729184,24.7033919 22.1927956,23.1358729 23.7972177,21.00027 L23.7972177,21.00027 L20.2962984,21.0004926 C21.3922294,20.3011457 22.6009583,19.5233359 23.9224848,18.6670634 L25.1594916,18.6665079 C25.3108578,18.3201169 25.4459155,17.9649689 25.5636777,17.6020317 C25.7493306,17.4802237 25.939107,17.3565926 26.1308792,17.2315733 Z M9.73834295,21.4184223 L9.70700078,21.4280474 C9.66158172,21.2875152 9.61741594,21.1448857 9.5745392,21.0002382 L9.5745392,21.0002382 L5.13106978,21.0002382 C5.27218783,21.1880776 5.41884084,21.371522 5.57078695,21.5503284 L4.20346119,21.5508674 L4.20346119,21.5508674 L1.12496661,18.2627915 C0.695804309,16.9187109 0.464159578,15.4864014 0.464159578,14 C0.464159578,6.26775745 6.7319028,0 14.4641596,0 C20.3592687,0 25.4031432,3.64323273 27.467134,8.80107243 L25.2601596,9.575 L25.1596186,9.33349213 L19.899725,9.33349213 C20.015293,9.98466107 20.1074337,10.6616651 20.1738169,11.3594927 L19.899725,11.4563013 L20.2381733,12.1632349 C20.2772852,12.7630899 20.2975353,13.37634 20.2975353,14 C20.2975353,14.2078321 20.2952865,14.4145071 20.2908404,14.6199148 L17.8697779,16.4317379 C17.9315365,15.6512966 17.9642549,14.8371366 17.9642549,14 C17.9642549,12.3235712 17.833049,10.739314 17.6001751,9.33349213 L17.6001751,9.33349213 L11.3281123,9.33349213 C11.0952067,10.739314 10.9640643,12.3235712 10.9640643,14 C10.9640643,15.676397 11.0952702,17.2606543 11.3281759,18.6665079 L11.3281759,18.6665079 L14.8844761,18.6665079 C12.5027942,20.1773629 10.7874165,21.0946677 9.73834295,21.4184223 Z M9.02868951,9.33349213 L3.76870057,9.33349213 C3.1442734,10.7625633 2.79740821,12.3407224 2.79740821,14 C2.79740821,15.6592458 3.14430516,17.2374049 3.76879583,18.6665079 L3.76879583,18.6665079 L9.02868951,18.6665079 C8.77189939,17.2201585 8.63078394,15.6463825 8.63078394,14 C8.63078394,12.3536175 8.77189939,10.7798415 9.02868951,9.33349213 L9.02868951,9.33349213 Z M17.1928046,2.65429788 C18.0699565,3.67736345 18.8141237,5.17859648 19.3538753,6.9997618 L19.3538753,6.9997618 L23.7974082,6.9997618 C22.1929226,4.86403183 19.8729184,3.29648107 17.1928046,2.65429788 Z M14.4641596,3.50010322 C13.4276296,3.50010322 12.496547,4.85208956 11.8556358,6.9997618 L11.8556358,6.9997618 L17.0726516,6.9997618 C16.4317721,4.85205781 15.5006578,3.50010322 14.4641596,3.50010322 Z M11.7358004,2.6542026 C9.05559129,3.29638578 6.73546009,4.8639683 5.13091096,6.99973002 L5.13091096,6.99973002 L9.57457093,6.99973002 C10.1144178,5.17856469 10.8586168,3.67726816 11.7358004,2.6542026 Z" id="形状结合" fill="#55BDEB" fill-rule="nonzero"></path>
            <path d="M2.13162821e-14,17.762013 C2.18808318,22.2798525 5.08438719,23.9392504 8.68891203,22.7402065 C12.2934369,21.5411627 17.0851542,18.438617 23.064064,13.4325694 L21.048394,12.1619608 L29.7689523,8.96 L28.3708792,17.762013 L26.0374082,15.5590866 C24.7065089,17.0277042 22.2856629,18.8218889 18.7748704,20.9416408 C13.5086816,24.1212687 7.59950205,26.2503323 4.35645742,24.4952694 C2.19442766,23.3252275 0.742275187,21.0808087 2.13162821e-14,17.762013 Z" id="路径-2" fill="#0D85C9"></path>
        </g>
    </g>
</svg>