<?xml version="1.0" encoding="UTF-8"?>
<svg width="42px" height="42px" viewBox="0 0 42 42" version="1.1" xmlns="http://www.w3.org/2000/svg" xmlns:xlink="http://www.w3.org/1999/xlink">
    <!-- Generator: Sketch 63 (92445) - https://sketch.com -->
    <title>组件库存</title>
    <desc>Created with Sketch.</desc>
    <g id="页面-1" stroke="none" stroke-width="1" fill="none" fill-rule="evenodd">
        <g id="画板" transform="translate(-355.000000, -674.000000)" fill="#FFFFFF" fill-rule="nonzero">
            <path d="M380.5,707 C381.328427,707 382,707.671573 382,708.5 C382,709.328427 381.328427,710 380.5,710 L372.5,710 C371.671573,710 371,709.328427 371,708.5 C371,707.671573 371.671573,707 372.5,707 L380.5,707 Z M388.993273,674 C391.225,674 392.975636,675.253788 393.630455,677.251894 L393.630455,677.251894 L396.475,687.011364 C396.518909,687.104167 396.560909,687.19697 396.560909,687.289773 L396.560909,687.289773 L396.560909,687.382576 C396.868273,688.267045 397,689.242424 397,690.217803 C397,693.609848 396.083636,696.304924 393.281091,697.977273 C392.099364,698.628788 390.7,699 389.125,699 C386.543909,699 384.136545,697.793561 382.519545,695.748106 C380.944545,697.791667 378.539091,699 376,699 C373.420818,699 371.055455,697.793561 369.436545,695.748106 C367.819545,697.791667 365.412182,699 362.831091,699 C361.3,699 359.900636,698.628788 358.760909,697.977273 C355.918273,696.397727 355,693.655303 355,690.263258 C355,689.287879 355.133636,688.310606 355.437182,687.382576 C355.437182,687.289773 355.481091,687.19697 355.481091,687.151515 L355.481091,687.151515 L358.631091,677.159091 C359.243909,675.208333 360.906727,674 363.094545,674 L363.094545,674 Z M395,702.276364 C395,701.325909 394.2932,700.566705 393.4116,700.566705 C393.2349,700.566705 393.1019,700.615 392.9689,700.663295 C391.766355,701.165402 390.474183,701.407507 389.1746,701.374205 C386.659,701.23125 384.7609,700.709659 382.9065,699 C381.105828,700.669363 378.768927,701.614971 376.3325,701.660114 C373.8587,701.660114 371.5198,700.945341 369.711,699.283977 C367.8566,700.945341 365.5177,701.801136 363.0458,701.801136 C361.5448,701.801136 360.6632,701.468864 359.2952,700.947273 C359.2515,700.947273 359.2059,700.898977 359.1622,700.898977 C359.0748,700.852614 358.9855,700.852614 358.9418,700.804318 C358.9418,700.804318 358.7214,700.757955 358.5884,700.757955 C357.7068,700.757955 357,701.517159 357,702.465682 L357,711.632159 C357,714.052727 358.8088,716 361.0603,716 L390.9397,716 C393.1912,716 395,714.006364 395,711.632159 L395,702.276364 Z" id="组件库存"></path>
        </g>
    </g>
</svg>