<?xml version="1.0" encoding="UTF-8"?>
<svg width="25px" height="25px" viewBox="0 0 25 25" version="1.1" xmlns="http://www.w3.org/2000/svg" xmlns:xlink="http://www.w3.org/1999/xlink">
    <!-- Generator: Sketch 63 (92445) - https://sketch.com -->
    <title>库存管理</title>
    <desc>Created with Sketch.</desc>
    <g id="页面-1" stroke="none" stroke-width="1" fill="none" fill-rule="evenodd">
        <g id="1-分销中心" transform="translate(-436.000000, -974.000000)" fill="#FFFFFF" fill-rule="nonzero">
            <g id="库存管理" transform="translate(436.000000, 974.000000)">
                <path d="M24.9986843,12.2762438 C24.9973685,13.402566 24.1908237,14.3104659 23.1250794,14.3973085 C22.894826,14.4157296 22.6645726,14.4209928 22.4343192,14.4209928 L12.5728948,14.4209928 C9.18093317,14.4209928 5.78897157,14.4223086 2.39700997,14.419677 C1.87071647,14.4183612 1.36679045,14.3078343 0.936545514,13.9670429 C0.399726146,13.5407247 0.0957916505,12.9723004 0.0918444492,12.2551911 C0.0852657805,10.8078145 0.0721084431,9.36043788 0.0971073842,7.91306127 C0.110264722,7.05647748 0.445776827,6.36305251 1.19969226,5.95910286 C1.46283901,5.81831259 1.74966897,5.76041752 2.04044613,5.73410158 C2.27464673,5.71304883 2.51016307,5.70515405 2.74567942,5.70515405 C9.36513589,5.70252246 15.9832766,5.70252246 22.6027331,5.70383826 C22.8777215,5.70383826 23.1527098,5.72489101 23.4250667,5.7722597 C24.2658206,5.91962895 24.7250116,6.48279003 24.9328976,7.31963687 C24.9789483,7.50384843 25,7.69332319 25,7.88542954 C24.9973685,9.34859571 25,10.8130777 24.9986843,12.2762438 L24.9986843,12.2762438 Z M14.518865,9.72491363 C14.414922,9.45122787 14.1794057,9.40122758 13.9333635,9.40122758 C13.016297,9.39859599 12.0992306,9.39991179 11.1821642,9.40122758 C10.7834969,9.40122758 10.4821938,9.6920187 10.4861027,10.0683366 C10.491404,10.5262339 10.7387619,10.7854459 11.1755855,10.7867617 C11.6360923,10.7893933 12.0979149,10.7867617 12.5584217,10.7867617 L13.9557309,10.7867617 C14.1320393,10.7867617 14.3030846,10.7499194 14.4162377,10.597287 C14.6135978,10.331496 14.6333338,10.0288627 14.518865,9.72491363 Z M22.0567036,3.47882567 L2.87856852,3.47882567 C2.83778078,3.47882567 2.79699303,3.48145727 2.75752102,3.47750988 C2.71410181,3.47487828 2.65752525,3.49987842 2.63384205,3.45119394 C2.60752737,3.39987786 2.65884099,3.36435134 2.6864714,3.33014062 C3.41538789,2.44197771 4.12588412,1.53539363 4.96663798,0.757757656 C5.34820077,0.403808286 5.75476249,0.0801222451 6.28631893,0.0169639933 C6.37578882,0.00643761796 6.46525872,0.0011744303 6.55604434,0.0011744303 C10.5585064,0.0011744303 14.5609685,-0.00277296044 18.5647462,0.00380602413 C19.2818211,0.00512182105 19.8896901,0.29986033 20.3501969,0.897232129 C20.9659603,1.69197346 21.6383003,2.43803032 22.208013,3.27356136 L22.2619581,3.34987758 C22.3172189,3.42882539 22.3093245,3.47619408 22.2066973,3.47750988 L22.0567036,3.47882567 L22.0567036,3.47882567 Z M1.29574083,16.4749518 C1.64441027,16.3446879 2.00755278,16.3012666 2.3746425,16.2999508 L11.8150321,16.298635 C15.4188269,16.298635 19.0213059,16.2973192 22.6237849,16.3012666 C23.1198165,16.3012666 23.6079537,16.376267 24.0303042,16.6802161 C24.5579135,17.056534 24.8263231,17.601274 24.9065829,18.2604882 C24.935529,18.4973317 24.9302661,18.7368067 24.9302661,18.9749659 C24.9302661,20.1841833 24.9092144,21.3934007 24.935529,22.6013022 C24.9611808,23.2236002 24.7338078,23.8297735 24.3052284,24.281675 C23.8766491,24.7335765 23.2833792,24.9927032 22.6606254,25 C19.2686638,24.9828946 15.8753865,24.993421 12.4834249,24.993421 L2.27596247,24.993421 C1.17600906,24.993421 0.260258369,24.2026271 0.0484252356,23.0657785 C0.0161204396,22.8886732 0.000264105913,22.7089594 0.00105882075,22.5289334 C0.0023745545,21.1828732 -0.00420411423,19.8354971 0.00500602199,18.4881211 C0.010268957,17.5591685 0.531299521,16.7617955 1.29574083,16.4749518 Z M11.074274,21.3499794 C11.5413595,21.3552425 12.0071293,21.3512952 12.472899,21.3512952 L12.472899,21.3499794 C12.9439317,21.3499794 13.4149644,21.3578741 13.885997,21.3473478 C14.2636126,21.339453 14.5017604,21.0486619 14.493866,20.63287 C14.4872874,20.2512889 14.2399294,19.9973401 13.8675768,19.9933927 C13.6017986,19.9907611 13.3373361,19.9933927 13.0715579,19.9933927 C12.3952707,19.9933927 11.7189836,19.9907611 11.0426964,19.9947085 C10.6769224,19.9960243 10.4137757,20.2762891 10.4085128,20.6539228 C10.4045656,21.0591882 10.6716595,21.3447162 11.074274,21.3499794 L11.074274,21.3499794 Z" id="形状"></path>
            </g>
        </g>
    </g>
</svg>