<?xml version="1.0" encoding="UTF-8"?>
<svg width="16px" height="17px" viewBox="0 0 16 17" version="1.1" xmlns="http://www.w3.org/2000/svg" xmlns:xlink="http://www.w3.org/1999/xlink">
    <!-- Generator: Sketch 63 (92445) - https://sketch.com -->
    <title>分销任务管理</title>
    <desc>Created with Sketch.</desc>
    <g id="页面-1" stroke="none" stroke-width="1" fill="none" fill-rule="evenodd">
        <g id="1920" transform="translate(-30.000000, -182.000000)" fill="#ffffff" fill-rule="nonzero">
            <g id="分销任务管理" transform="translate(30.004433, 182.012190)">
                <path d="M13.8275709,0.689273055 L11.5625,0.689273055 C11.3253546,0.277039013 10.8820922,9.76996262e-15 10.3745567,9.76996262e-15 L4.8359929,9.76996262e-15 C4.32845745,9.76996262e-15 3.88962766,0.279255319 3.64804963,0.689273055 L1.37632979,0.689273055 C0.618351064,0.689273055 -1.50990331e-14,1.30540781 -1.50990331e-14,2.07003547 L-1.50990331e-14,14.5301419 C-1.50990331e-14,15.2881206 0.616134757,15.9109043 1.3807624,15.9109043 L13.8408688,15.9109043 C14.5988475,15.9109043 15.2171986,15.2947695 15.2216312,14.5301419 L15.2216312,2.06781915 C15.2083333,1.3054078 14.5899823,0.689273055 13.8275709,0.689273055 Z M10.3723404,1.38741135 L10.376773,2.76374114 L4.83820921,2.75930851 L4.83820921,1.38741135 L4.8337766,1.37854611 L10.3723404,1.38741135 Z M10.9397163,7.43794327 L7.14317375,11.5868794 C7.01019503,11.7287234 6.82845745,11.810727 6.63120567,11.810727 C6.43395389,11.810727 6.25221631,11.7242908 6.11923758,11.5780142 L4.26861702,9.50354611 C4.01374114,9.21985816 4.04033688,8.78102837 4.32402482,8.52615249 C4.60771275,8.27127661 5.04654255,8.29787236 5.30141843,8.58156029 L6.64450354,10.0842199 L9.92464538,6.49822696 C10.1795213,6.21453901 10.618351,6.19680853 10.902039,6.45168441 C11.1768617,6.71985816 11.1968085,7.15868795 10.9397163,7.43794327 Z" id="形状"></path>
            </g>
        </g>
    </g>
</svg>