<?xml version="1.0" encoding="UTF-8"?>
<svg width="25px" height="23px" viewBox="0 0 25 23" version="1.1" xmlns="http://www.w3.org/2000/svg" xmlns:xlink="http://www.w3.org/1999/xlink">
    <!-- Generator: Sketch 63 (92445) - https://sketch.com -->
    <title>分销区域管理</title>
    <desc>Created with Sketch.</desc>
    <g id="页面-1" stroke="none" stroke-width="1" fill="none" fill-rule="evenodd">
        <g id="1-分销中心" transform="translate(-436.000000, -1167.000000)" fill="#FFFFFF" fill-rule="nonzero">
            <g id="分销区域管理" transform="translate(436.000000, 1167.000000)">
                <path d="M18.3679576,0 C14.8520988,0 12.11208,2.87739783 12.11208,6.36864055 C12.11208,9.03929202 13.8176455,12.0701511 15.2645978,14.1248263 C16.4037788,15.7169864 17.5942549,17.0533778 18.107207,17.6693541 C18.1606395,17.7205078 18.2653672,17.8228153 18.3679576,17.8228153 C18.4192528,17.8228153 18.5731384,17.7716616 18.6244336,17.6693541 C19.1950928,17.0512464 20.3321364,15.7169864 21.4670428,14.1248263 C22.9161323,12.0701511 24.6238352,9.03929202 24.6238352,6.36864055 C24.6729931,2.87526644 21.8325212,0 18.3679576,0 Z M18.3807814,7.44926329 C17.4374377,7.44692021 16.6732908,6.68488073 16.6709413,5.74413863 C16.6709413,4.78926884 17.4339574,4.039014 18.3807814,4.039014 C19.3276054,4.039014 20.0906215,4.81271431 20.0906215,5.74413863 C20.0906215,6.67556296 19.3276053,7.44926329 18.3807814,7.44926329 L18.3807814,7.44926329 Z M15.6877832,16.7890835 L1.81456784,16.0494857 L3.43250406,10.4119173 C3.50031023,10.1345374 3.74483191,9.93597606 4.03094812,9.92595682 L11.1802171,9.695765 C11.5072241,10.6676861 12.3386338,12.332314 12.8943319,13.2424243 C13.2576729,13.8306923 14.1873985,15.0114911 15.6877832,16.7890835 L15.6877832,16.7890835 Z M11.1780799,23 L0.707446356,22.9360578 C0.489441733,22.9360578 0.271437133,22.8849041 0.16243481,22.6696321 C0,22.5609304 0,22.343527 0,22.1261236 L1.41489271,17.2132333 L14.8991194,18.1084237 L11.1802171,22.9978686 L11.1802171,23 L11.1780799,23 Z M24.1237069,18.8970438 L19.951697,18.5112594 C20.8365393,17.4285052 21.7042831,16.3286999 22.550654,15.216106 C22.6040865,15.0029654 22.7686586,14.8942637 22.8755236,14.6789918 L24.1237069,18.8991752 L24.1237069,18.8970438 Z M24.9444302,22.0195533 C24.9444302,22.0728385 25,22.1815402 25,22.2348253 C24.9942638,22.6208882 24.6818215,22.9324688 24.2946909,22.9381892 L12.2488672,22.9381892 L16.0468496,18.3343527 L24.3438489,19.8625707 L24.9444302,22.0195533 L24.9444302,22.0195533 Z" id="形状"></path>
            </g>
        </g>
    </g>
</svg>